<?xml version="1.0" encoding="UTF-8" standalone="no"?>
<!DOCTYPE svg PUBLIC "-//W3C//DTD SVG 1.1//EN" "http://www.w3.org/Graphics/SVG/1.1/DTD/svg11.dtd">
<svg width="100%" height="100%" viewBox="0 0 786 568" version="1.1" xmlns="http://www.w3.org/2000/svg" xmlns:xlink="http://www.w3.org/1999/xlink" xml:space="preserve" xmlns:serif="http://www.serif.com/" style="fill-rule:evenodd;clip-rule:evenodd;stroke-linecap:round;stroke-linejoin:round;stroke-miterlimit:1.5;">
    <g transform="matrix(1,0,0,1,-429.484,-1810.62)">
        <g transform="matrix(1,0,0,1,0,-0.047506)">
            <g transform="matrix(1,0,0,1,0,0.047506)">
                <path d="M654.707,1810.87L663.581,1822.08L670.64,1810.87L917.465,1810.87L925.347,1825.55L899.53,1848.69L837.691,1845.8L937.354,1875.3L934.352,1812.83L959.568,1826.71L959.568,1810.87L1014.75,1810.87L1093.28,1888.49L1050.2,1896.22L1031.42,1970.22L1009.33,1948.13L993.868,2038.7L1047.99,2029.87L1059.04,2081.77L1141.88,2110.5L1056.83,2113.81L1074.5,2183.4L1087.75,2149.16L1130.83,2144.74L1139.67,2217.64L1065.66,2227.58L1135.25,2243.04L1168.38,2286.12L1095.49,2291.64L1089.96,2254.09L1072.29,2317.04L1097.69,2321.46L1166.17,2311.52L1214.77,2330.3L1178.33,2351.28L1207.04,2354.6L1209.25,2377.8L945.484,2377.8L862.307,2200.52L927.587,2368.76L846.097,2367.68L850.422,2377.8L782.8,2377.8L777.053,2306.66L807.072,2340.2L809.473,2267.9L743.432,2303.19L728.422,2303.19L725.42,2316.49L687.597,2311.28L686.996,2329.79L590.035,2334.13L695.101,2293.06L689.698,2262.41L710.111,2251.99L742.531,2265.3L763.544,2252.57L722.719,2241.58L710.711,2214.98L665.683,2265.88L653.675,2268.19L656.077,2289.01L648.272,2295.38L569.022,2303.47L580.429,2286.12L641.668,2277.45L536.601,2241.01L612.249,2221.34L641.668,2252.57L648.272,2243.9L717.916,2171.02L690.298,2171.6L676.49,2185.48L576.827,2217.29L576.827,2190.68L675.889,2169.28L666.283,2154.82L645.27,2160.61L578.628,2083.24L487.37,2061.26L495.175,2080.35L492.774,2134.14L429.734,2087.87L480.766,2080.35L475.963,2063.57L463.355,2053.74L522.793,2046.8L570.823,2050.85L576.827,2073.99L593.637,2083.24L591.836,2067.05L569.622,2032.34L549.209,2016.14L520.991,2027.71L504.781,2016.72L552.812,2006.89L560.617,2013.83L568.421,1998.21L616.452,1962.35L603.243,1997.06L617.652,1980.28L636.264,2008.05L639.866,1920.7L566.62,1957.72L621.255,1894.67L635.664,1906.82L627.259,1874.43L578.628,1890.63L555.213,1893.52L531.798,1865.75L591.836,1831.05L566.02,1883.68L605.044,1842.62L656.077,1871.54L644.069,1876.16L675.889,1949.63L672.287,1890.05L741.331,1987.8L717.315,1920.7L669.285,1872.12L670.486,1860.55L664.482,1852.45L645.27,1856.5L603.844,1822.37L617.272,1810.87L654.707,1810.87ZM979.653,2281.91L874.915,2198.2L973.377,2292.49L979.653,2283.92L979.653,2281.91ZM745.533,2085.84L741.931,2067.91L732.325,2069.65L737.128,2141.95L761.143,2163.93L749.135,2180.13L731.124,2173.76L728.122,2186.49L812.175,2227.56L811.575,2210.78L765.346,2137.9L805.571,2132.7L745.533,2128.07L745.533,2085.84ZM871.913,2188.51L961.97,2200.66L959.568,2175.21L871.913,2188.51ZM859.005,2180.99L861.406,2101.75L834.389,2129.51L859.005,2180.99ZM927.148,2132.12L934.352,2173.18L977.58,2162.2L973.977,2141.37L927.148,2132.12ZM717.616,2133.85L632.962,2087L638.966,2097.41L624.557,2097.41L685.795,2124.02L677.39,2146L717.616,2133.85ZM906.735,2038.7L865.909,2096.54L923.545,2119.68L906.735,2038.7ZM823.582,2101.17L816.378,2066.47L748.535,2107.53L821.781,2118.52L815.777,2106.38L767.147,2104.06L810.974,2088.45L818.179,2099.44L823.582,2101.17ZM613.75,2059.53L617.953,2069.94L662.381,2044.49L643.769,2038.12L613.75,2059.53ZM723.019,2000.96L727.822,2011.95L748.835,2016L746.434,2054.18L784.258,2031.62L792.062,2035.66L842.494,2018.31L801.068,2016L745.833,1999.8L723.019,2000.96ZM670.636,2020.34L671.236,2037.69L682.643,2036.53L670.636,2020.34ZM710.411,2010.36L703.807,2005.73L694.801,2004.58L684.595,1988.38L682.193,2004.58L688.197,2028.29L703.807,2019.04L710.411,2010.36ZM949.962,1932.56L926.547,1941.24L925.347,1955.7L913.339,1958.59L912.739,2000.24L858.104,2011.81L918.742,2024.53L938.555,1953.38L948.161,1952.23L957.767,1960.9L959.568,1944.71L949.962,1932.56ZM730.775,1815.28L716.703,1822.08L810.074,1888.6L796.441,1929.67L792.335,1919.26L748.93,1989.83L782.671,1915.21L748.93,1917.52L763.022,1892.65L687.974,1837.12L679.191,1840.01L668.384,1829.02L693,1818.03L730.775,1815.28ZM958.968,1928.51L960.769,1892.65L933.151,1881.08L958.968,1928.51ZM810.074,1837.12L796.441,1822.08L739.862,1815.28L810.074,1837.12Z" style="fill:none;stroke:rgb(8,6,5);stroke-width:0.5px;"/>
            </g>
        </g>
    </g>
</svg>
