<?xml version="1.0" encoding="UTF-8" standalone="no"?>
<!DOCTYPE svg PUBLIC "-//W3C//DTD SVG 1.1//EN" "http://www.w3.org/Graphics/SVG/1.1/DTD/svg11.dtd">
<svg width="100%" height="100%" viewBox="0 0 195 42" version="1.1" xmlns="http://www.w3.org/2000/svg" xmlns:xlink="http://www.w3.org/1999/xlink" xml:space="preserve" xmlns:serif="http://www.serif.com/" style="fill-rule:evenodd;clip-rule:evenodd;stroke-linejoin:round;stroke-miterlimit:2;">
    <g transform="matrix(1,0,0,1,-1475.04,-2242.06)">
        <g transform="matrix(1,0,0,1,0,-0.047506)">
            <g transform="matrix(1,0,0,1,0,0.047506)">
                <path d="M1509.27,2283.13L1485,2283.13L1475.04,2273.87L1475.04,2257.1L1489.45,2245.53L1519.47,2273.29L1509.27,2283.13Z" style="fill:rgb(8,6,5);"/>
            </g>
        </g>
        <g transform="matrix(1,0,0,1,0,-0.047506)">
            <g transform="matrix(1,0,0,1,0,0.047506)">
                <path d="M1543.89,2283.13L1530.93,2283.13L1540.48,2265.2L1552.49,2257.1L1559.1,2273.87L1543.89,2283.13Z" style="fill:rgb(8,6,5);"/>
            </g>
        </g>
        <g transform="matrix(1,0,0,1,0,-0.047506)">
            <g transform="matrix(1,0,0,1,0,0.047506)">
                <path d="M1665.84,2283.13L1577.35,2283.13L1571.1,2253.05L1669.57,2242.06L1665.84,2283.13Z" style="fill:rgb(8,6,5);"/>
            </g>
        </g>
    </g>
</svg>
