<?xml version="1.0" encoding="UTF-8" standalone="no"?>
<!DOCTYPE svg PUBLIC "-//W3C//DTD SVG 1.1//EN" "http://www.w3.org/Graphics/SVG/1.1/DTD/svg11.dtd">
<svg width="100%" height="100%" viewBox="0 0 699 47" version="1.1" xmlns="http://www.w3.org/2000/svg" xmlns:xlink="http://www.w3.org/1999/xlink" xml:space="preserve" xmlns:serif="http://www.serif.com/" style="fill-rule:evenodd;clip-rule:evenodd;stroke-linejoin:round;stroke-miterlimit:2;">
    <g transform="matrix(1,0,0,1,-1027.49,-842.311)">
        <g transform="matrix(1,0,0,1,111.698,0)">
            <g transform="matrix(1,0,0,1,177.481,-27.3855)">
                <path d="M761.339,875.759L761.339,910.665C761.339,911.519 761.474,912.129 761.745,912.493C762.016,912.858 762.547,913.144 763.339,913.352L763.339,914.352L754.432,914.352L754.432,913.352C755.224,913.144 755.755,912.863 756.026,912.509C756.297,912.155 756.432,911.54 756.432,910.665L756.432,875.759L741.995,875.759C741.12,875.759 740.5,875.891 740.135,876.155C739.771,876.42 739.495,876.954 739.307,877.759L738.307,877.759L738.307,869.696L739.307,869.696C739.495,870.496 739.771,871.03 740.135,871.296C740.5,871.563 741.12,871.696 741.995,871.696L775.776,871.696C776.651,871.696 777.271,871.563 777.635,871.296C778,871.03 778.276,870.496 778.464,869.696L779.464,869.696L779.464,877.759L778.464,877.759C778.276,876.954 778,876.42 777.635,876.155C777.271,875.891 776.651,875.759 775.776,875.759L761.339,875.759Z" style="fill:rgb(35,31,32);fill-rule:nonzero;"/>
                <path d="M813.432,898.04L790.339,898.04L790.339,910.821C790.339,911.675 790.474,912.285 790.745,912.649C791.016,913.014 791.547,913.3 792.339,913.509L792.339,914.352L783.87,914.352L783.87,913.509C784.662,913.3 785.193,913.014 785.464,912.649C785.734,912.285 785.87,911.675 785.87,910.821L785.87,882.884C785.87,882.009 785.734,881.394 785.464,881.04C785.193,880.686 784.662,880.405 783.87,880.196L783.87,879.352L792.339,879.352L792.339,880.196C791.547,880.405 791.016,880.686 790.745,881.04C790.474,881.394 790.339,882.009 790.339,882.884L790.339,894.634L813.432,894.634L813.432,882.884C813.432,882.009 813.297,881.394 813.026,881.04C812.755,880.686 812.224,880.405 811.432,880.196L811.432,879.352L819.901,879.352L819.901,880.196C819.109,880.405 818.578,880.691 818.307,881.056C818.037,881.42 817.901,882.03 817.901,882.884L817.901,910.821C817.901,911.675 818.037,912.285 818.307,912.649C818.578,913.014 819.109,913.3 819.901,913.509L819.901,914.352L811.432,914.352L811.432,913.509C812.224,913.3 812.755,913.014 813.026,912.649C813.297,912.285 813.432,911.675 813.432,910.821L813.432,898.04Z" style="fill:rgb(35,31,32);fill-rule:nonzero;"/>
                <path d="M833.87,897.977L833.87,910.946L855.495,910.946C856.37,910.946 856.99,910.813 857.354,910.546C857.719,910.28 857.995,909.746 858.182,908.946L859.057,908.946L859.057,916.352L858.182,916.352C857.995,915.561 857.724,915.03 857.37,914.759C857.016,914.488 856.401,914.352 855.526,914.352L827.401,914.352L827.401,913.509C828.214,913.3 828.75,913.014 829.01,912.649C829.271,912.285 829.401,911.675 829.401,910.821L829.401,882.884C829.401,882.009 829.266,881.394 828.995,881.04C828.724,880.686 828.193,880.405 827.401,880.196L827.401,879.352L855.307,879.352C856.182,879.352 856.797,879.217 857.151,878.946C857.505,878.675 857.787,878.144 857.995,877.352L858.839,877.352L858.839,884.759L857.995,884.759C857.787,883.959 857.505,883.425 857.151,883.159C856.797,882.892 856.182,882.759 855.307,882.759L833.87,882.759L833.87,894.571L847.526,894.571C848.401,894.571 849.016,894.436 849.37,894.165C849.724,893.894 850.005,893.363 850.214,892.571L851.057,892.571L851.057,899.977L850.214,899.977C850.005,899.177 849.719,898.644 849.354,898.377C848.99,898.111 848.38,897.977 847.526,897.977L833.87,897.977Z" style="fill:rgb(35,31,32);fill-rule:nonzero;"/>
                <path d="M922.526,874.346L918.057,882.415L917.182,881.946C917.537,881.009 917.714,880.425 917.714,880.196C917.714,879.571 916.943,878.894 915.401,878.165C911.214,876.207 906.776,875.227 902.089,875.227C898.234,875.227 894.88,875.945 892.026,877.379C890.651,878.086 889.563,879.001 888.76,880.123C887.958,881.246 887.557,882.431 887.557,883.679C887.557,884.718 887.87,885.7 888.495,886.625C889.12,887.551 889.943,888.242 890.964,888.7C892.089,889.219 893.417,889.578 894.948,889.775C896.479,889.973 898.974,890.124 902.432,890.227C907.224,890.373 910.651,890.597 912.714,890.899C914.776,891.201 916.474,891.727 917.807,892.477C921.349,894.457 923.12,897.467 923.12,901.509C923.12,905.363 921.516,908.519 918.307,910.977C914.745,913.727 909.839,915.102 903.589,915.102C899.984,915.102 896.839,914.738 894.151,914.009C891.464,913.28 888.255,911.936 884.526,909.977C883.484,909.498 882.87,909.259 882.682,909.259C882.37,909.259 881.88,909.634 881.214,910.384L880.37,909.852L885.057,902.009L885.932,902.509C885.537,903.342 885.339,903.905 885.339,904.196C885.339,904.863 886.672,905.894 889.339,907.29C891.734,908.54 894.042,909.441 896.26,909.993C898.479,910.545 900.891,910.821 903.495,910.821C908.766,910.821 912.766,909.665 915.495,907.352C917.307,905.811 918.214,903.977 918.214,901.852C918.214,899.061 916.662,897.134 913.557,896.071C912.557,895.717 911.521,895.493 910.448,895.399C909.375,895.306 906.328,895.165 901.307,894.977C897.724,894.832 894.917,894.561 892.885,894.165C890.854,893.769 889.047,893.123 887.464,892.227C885.984,891.394 884.813,890.227 883.948,888.727C883.083,887.227 882.651,885.592 882.651,883.821C882.651,880.8 883.776,878.207 886.026,876.04C887.693,874.457 889.995,873.212 892.932,872.306C895.87,871.399 899.089,870.946 902.589,870.946C905.443,870.946 908.094,871.23 910.542,871.796C912.99,872.363 915.755,873.338 918.839,874.724C919.526,875.018 919.953,875.164 920.12,875.164C920.495,875.164 921.005,874.745 921.651,873.905L922.526,874.346Z" style="fill:rgb(35,31,32);fill-rule:nonzero;"/>
                <path d="M945.682,882.946L945.682,910.821C945.682,911.675 945.813,912.285 946.073,912.649C946.333,913.014 946.87,913.3 947.682,913.509L947.682,914.352L939.214,914.352L939.214,913.509C940.005,913.3 940.537,913.014 940.807,912.649C941.078,912.285 941.214,911.675 941.214,910.821L941.214,882.946L929.807,882.946C928.932,882.946 928.318,883.08 927.964,883.346C927.609,883.613 927.328,884.146 927.12,884.946L926.276,884.946L926.276,877.54L927.12,877.54C927.328,878.332 927.609,878.863 927.964,879.134C928.318,879.405 928.932,879.54 929.807,879.54L957.089,879.54C957.964,879.54 958.578,879.405 958.932,879.134C959.287,878.863 959.568,878.332 959.776,877.54L960.62,877.54L960.62,884.946L959.776,884.946C959.568,884.146 959.281,883.613 958.917,883.346C958.552,883.08 957.943,882.946 957.089,882.946L945.682,882.946Z" style="fill:rgb(35,31,32);fill-rule:nonzero;"/>
                <path d="M985.836,904.509L967.47,904.509L964.835,910.384C964.502,911.113 964.335,911.655 964.335,912.009C964.335,912.717 964.878,913.217 965.964,913.509L965.964,914.352L957.339,914.352L957.339,913.509C958.172,913.363 958.823,913.035 959.292,912.524C959.76,912.014 960.318,911.04 960.964,909.602L972.557,884.415C973.203,883.019 973.526,882.061 973.526,881.54C973.526,880.811 973.005,880.363 971.964,880.196L971.964,879.352L982.12,879.352L982.12,880.196C981.078,880.425 980.557,880.873 980.557,881.54C980.557,881.936 980.974,883.05 981.807,884.884L992.932,909.102C993.682,910.707 994.328,911.811 994.87,912.415C995.412,913.019 996.099,913.384 996.932,913.509L996.932,914.352L987.823,914.352L987.823,913.509C988.797,913.3 989.284,912.946 989.284,912.446C989.284,912.196 989.034,911.509 988.534,910.384L985.836,904.509ZM984.374,901.102L976.732,883.942L969.004,901.102L984.374,901.102Z" style="fill:rgb(35,31,32);fill-rule:nonzero;"/>
                <path d="M1016.68,882.946L1016.68,910.821C1016.68,911.675 1016.81,912.285 1017.07,912.649C1017.33,913.014 1017.87,913.3 1018.68,913.509L1018.68,914.352L1010.21,914.352L1010.21,913.509C1011,913.3 1011.54,913.014 1011.81,912.649C1012.08,912.285 1012.21,911.675 1012.21,910.821L1012.21,882.946L1000.81,882.946C999.932,882.946 999.318,883.08 998.964,883.346C998.609,883.613 998.328,884.146 998.12,884.946L997.276,884.946L997.276,877.54L998.12,877.54C998.328,878.332 998.609,878.863 998.964,879.134C999.318,879.405 999.932,879.54 1000.81,879.54L1028.09,879.54C1028.96,879.54 1029.58,879.405 1029.93,879.134C1030.29,878.863 1030.57,878.332 1030.78,877.54L1031.62,877.54L1031.62,884.946L1030.78,884.946C1030.57,884.146 1030.28,883.613 1029.92,883.346C1029.55,883.08 1028.94,882.946 1028.09,882.946L1016.68,882.946Z" style="fill:rgb(35,31,32);fill-rule:nonzero;"/>
                <path d="M1043.03,897.977L1043.03,910.946L1064.65,910.946C1065.53,910.946 1066.15,910.813 1066.51,910.546C1066.88,910.28 1067.15,909.746 1067.34,908.946L1068.21,908.946L1068.21,916.352L1067.34,916.352C1067.15,915.561 1066.88,915.03 1066.53,914.759C1066.17,914.488 1065.56,914.352 1064.68,914.352L1036.56,914.352L1036.56,913.509C1037.37,913.3 1037.91,913.014 1038.17,912.649C1038.43,912.285 1038.56,911.675 1038.56,910.821L1038.56,882.884C1038.56,882.009 1038.42,881.394 1038.15,881.04C1037.88,880.686 1037.35,880.405 1036.56,880.196L1036.56,879.352L1064.46,879.352C1065.34,879.352 1065.95,879.217 1066.31,878.946C1066.66,878.675 1066.94,878.144 1067.15,877.352L1068,877.352L1068,884.759L1067.15,884.759C1066.94,883.959 1066.66,883.425 1066.31,883.159C1065.95,882.892 1065.34,882.759 1064.46,882.759L1043.03,882.759L1043.03,894.571L1056.68,894.571C1057.56,894.571 1058.17,894.436 1058.53,894.165C1058.88,893.894 1059.16,893.363 1059.37,892.571L1060.21,892.571L1060.21,899.977L1059.37,899.977C1059.16,899.177 1058.88,898.644 1058.51,898.377C1058.15,898.111 1057.54,897.977 1056.68,897.977L1043.03,897.977Z" style="fill:rgb(35,31,32);fill-rule:nonzero;"/>
                <path d="M1110.9,878.602C1117.13,878.602 1122.15,880.227 1125.96,883.477C1130.03,886.915 1132.06,891.457 1132.06,897.102C1132.06,900.623 1131.06,903.852 1129.06,906.79C1125.29,912.332 1119.26,915.102 1110.96,915.102C1104.78,915.102 1099.78,913.477 1095.96,910.227C1091.9,906.769 1089.87,902.311 1089.87,896.852C1089.87,893.165 1090.86,889.852 1092.84,886.915C1094.94,883.811 1097.89,881.55 1101.68,880.134C1104.29,879.155 1107.36,878.644 1110.9,878.602ZM1110.9,882.227C1105.82,882.227 1101.72,883.79 1098.62,886.915C1095.91,889.623 1094.56,892.936 1094.56,896.852C1094.56,900.769 1095.91,904.082 1098.62,906.79C1101.72,909.915 1105.84,911.477 1110.96,911.477C1116.09,911.477 1120.2,909.915 1123.31,906.79C1126.02,904.082 1127.37,900.832 1127.37,897.04C1127.37,892.936 1126.02,889.561 1123.31,886.915C1120.18,883.832 1116.05,882.269 1110.9,882.227Z" style="fill:rgb(35,31,32);fill-rule:nonzero;"/>
                <path d="M1145.18,897.946L1145.18,910.821C1145.18,911.675 1145.32,912.285 1145.59,912.649C1145.86,913.014 1146.39,913.3 1147.18,913.509L1147.18,914.352L1138.71,914.352L1138.71,913.509C1139.51,913.3 1140.04,913.014 1140.31,912.649C1140.58,912.285 1140.71,911.675 1140.71,910.821L1140.71,882.884C1140.71,882.009 1140.58,881.394 1140.31,881.04C1140.04,880.686 1139.51,880.405 1138.71,880.196L1138.71,879.352L1167.15,879.352C1168.01,879.352 1168.62,879.217 1168.98,878.946C1169.34,878.675 1169.63,878.144 1169.84,877.352L1170.68,877.352L1170.68,884.759L1169.84,884.759C1169.63,883.959 1169.34,883.425 1168.98,883.159C1168.62,882.892 1168.01,882.759 1167.15,882.759L1145.18,882.759L1145.18,894.54L1159.46,894.54C1160.34,894.54 1160.95,894.407 1161.31,894.14C1161.66,893.873 1161.94,893.34 1162.15,892.54L1163,892.54L1163,899.946L1162.15,899.946C1161.94,899.155 1161.66,898.623 1161.31,898.352C1160.95,898.082 1160.34,897.946 1159.46,897.946L1145.18,897.946Z" style="fill:rgb(35,31,32);fill-rule:nonzero;"/>
                <path d="M1199.87,877.102L1199.87,910.665C1199.87,911.519 1200.01,912.129 1200.28,912.493C1200.55,912.858 1201.08,913.144 1201.87,913.352L1201.87,914.352L1193.4,914.352L1193.4,913.352C1194.21,913.144 1194.75,912.863 1195.01,912.509C1195.27,912.155 1195.4,911.54 1195.4,910.665L1195.4,875.384C1195.4,874.509 1195.27,873.889 1195,873.524C1194.72,873.16 1194.19,872.884 1193.4,872.696L1193.4,871.696L1205.66,871.696L1205.66,872.696C1204.68,873.03 1204.19,873.498 1204.19,874.102C1204.19,874.519 1204.68,875.3 1205.66,876.446L1231.37,906.509L1231.37,875.384C1231.37,874.509 1231.23,873.889 1230.96,873.524C1230.69,873.16 1230.16,872.884 1229.37,872.696L1229.37,871.696L1237.84,871.696L1237.84,872.696C1237.05,872.884 1236.52,873.16 1236.25,873.524C1235.97,873.889 1235.84,874.509 1235.84,875.384L1235.84,910.665C1235.84,911.54 1235.97,912.155 1236.25,912.509C1236.52,912.863 1237.05,913.144 1237.84,913.352L1237.84,914.352L1227.99,914.352L1227.99,913.352C1228.95,913.102 1229.43,912.675 1229.43,912.071C1229.43,911.613 1228.99,910.863 1228.12,909.821L1199.87,877.102Z" style="fill:rgb(35,31,32);fill-rule:nonzero;"/>
                <path d="M1271.9,904.509L1253.53,904.509L1250.9,910.384C1250.56,911.113 1250.4,911.655 1250.4,912.009C1250.4,912.717 1250.94,913.217 1252.03,913.509L1252.03,914.352L1243.4,914.352L1243.4,913.509C1244.23,913.363 1244.88,913.035 1245.35,912.524C1245.82,912.014 1246.38,911.04 1247.03,909.602L1258.62,884.415C1259.27,883.019 1259.59,882.061 1259.59,881.54C1259.59,880.811 1259.07,880.363 1258.03,880.196L1258.03,879.352L1268.18,879.352L1268.18,880.196C1267.14,880.425 1266.62,880.873 1266.62,881.54C1266.62,881.936 1267.04,883.05 1267.87,884.884L1279,909.102C1279.75,910.707 1280.39,911.811 1280.93,912.415C1281.47,913.019 1282.16,913.384 1283,913.509L1283,914.352L1273.88,914.352L1273.88,913.509C1274.86,913.3 1275.35,912.946 1275.35,912.446C1275.35,912.196 1275.1,911.509 1274.6,910.384L1271.9,904.509ZM1270.44,901.102L1262.8,883.942L1255.07,901.102L1270.44,901.102Z" style="fill:rgb(35,31,32);fill-rule:nonzero;"/>
                <path d="M1302.75,882.946L1302.75,910.821C1302.75,911.675 1302.88,912.285 1303.13,912.649C1303.4,913.014 1303.93,913.3 1304.75,913.509L1304.75,914.352L1296.28,914.352L1296.28,913.509C1297.07,913.3 1297.6,913.014 1297.87,912.649C1298.14,912.285 1298.28,911.675 1298.28,910.821L1298.28,882.946L1286.87,882.946C1286,882.946 1285.38,883.08 1285.03,883.346C1284.67,883.613 1284.39,884.146 1284.18,884.946L1283.34,884.946L1283.34,877.54L1284.18,877.54C1284.39,878.332 1284.67,878.863 1285.03,879.134C1285.38,879.405 1286,879.54 1286.87,879.54L1314.15,879.54C1315.03,879.54 1315.64,879.405 1316,879.134C1316.35,878.863 1316.63,878.332 1316.84,877.54L1317.68,877.54L1317.68,884.946L1316.84,884.946C1316.63,884.146 1316.34,883.613 1315.98,883.346C1315.62,883.08 1315.01,882.946 1314.15,882.946L1302.75,882.946Z" style="fill:rgb(35,31,32);fill-rule:nonzero;"/>
                <path d="M1327.75,882.884L1327.75,900.852C1327.75,903.623 1327.88,905.535 1328.15,906.587C1328.42,907.639 1329.02,908.519 1329.93,909.227C1331.81,910.727 1335.02,911.477 1339.56,911.477C1344.58,911.477 1347.97,910.561 1349.75,908.727C1350.39,908.04 1350.82,907.191 1351.03,906.181C1351.23,905.17 1351.34,903.394 1351.34,900.852L1351.34,882.884C1351.34,882.03 1351.2,881.42 1350.93,881.056C1350.66,880.691 1350.13,880.405 1349.34,880.196L1349.34,879.352L1357.06,879.352L1357.06,880.196C1356.27,880.405 1355.73,880.686 1355.46,881.04C1355.19,881.394 1355.06,882.009 1355.06,882.884L1355.06,901.759C1355.06,904.967 1354.79,907.227 1354.25,908.54C1353.33,910.79 1351.65,912.446 1349.21,913.509C1346.78,914.571 1343.42,915.102 1339.15,915.102C1333.03,915.102 1328.73,913.967 1326.28,911.696C1325.09,910.613 1324.29,909.394 1323.88,908.04C1323.48,906.686 1323.28,904.592 1323.28,901.759L1323.28,882.884C1323.28,882.009 1323.14,881.394 1322.87,881.04C1322.6,880.686 1322.07,880.405 1321.28,880.196L1321.28,879.352L1329.75,879.352L1329.75,880.196C1328.95,880.405 1328.42,880.691 1328.15,881.056C1327.88,881.42 1327.75,882.03 1327.75,882.884Z" style="fill:rgb(35,31,32);fill-rule:nonzero;"/>
                <path d="M1370.37,898.509L1370.37,910.821C1370.37,911.675 1370.51,912.285 1370.78,912.649C1371.05,913.014 1371.58,913.3 1372.37,913.509L1372.37,914.352L1363.9,914.352L1363.9,913.509C1364.71,913.3 1365.25,913.014 1365.51,912.649C1365.77,912.285 1365.9,911.675 1365.9,910.821L1365.9,882.884C1365.9,882.009 1365.77,881.394 1365.5,881.04C1365.22,880.686 1364.69,880.405 1363.9,880.196L1363.9,879.352L1384.68,879.352C1387.04,879.352 1388.96,879.519 1390.45,879.852C1391.94,880.186 1393.23,880.748 1394.34,881.54C1396.76,883.248 1397.96,885.748 1397.96,889.04C1397.96,891.727 1397.12,893.847 1395.43,895.399C1393.75,896.951 1391.27,897.884 1388,898.196L1396.78,912.134C1397.09,912.612 1397.4,912.936 1397.7,913.105C1398,913.275 1398.54,913.409 1399.31,913.509L1399.31,914.352L1390.64,914.352L1390.64,913.509C1391.46,913.342 1391.86,913.082 1391.86,912.727C1391.86,912.477 1391.63,911.977 1391.14,911.227L1383.09,898.509L1370.37,898.509ZM1370.37,895.102L1383.68,895.102C1385.83,895.102 1387.44,895.024 1388.51,894.868C1389.58,894.712 1390.5,894.425 1391.25,894.009C1392.89,893.092 1393.71,891.498 1393.71,889.227C1393.71,887.04 1392.94,885.394 1391.4,884.29C1389.98,883.269 1387.58,882.759 1384.18,882.759L1370.37,882.759L1370.37,895.102Z" style="fill:rgb(35,31,32);fill-rule:nonzero;"/>
                <path d="M1411.34,897.977L1411.34,910.946L1432.96,910.946C1433.84,910.946 1434.46,910.813 1434.82,910.546C1435.19,910.28 1435.46,909.746 1435.65,908.946L1436.53,908.946L1436.53,916.352L1435.65,916.352C1435.46,915.561 1435.19,915.03 1434.84,914.759C1434.48,914.488 1433.87,914.352 1433,914.352L1404.87,914.352L1404.87,913.509C1405.68,913.3 1406.22,913.014 1406.48,912.649C1406.74,912.285 1406.87,911.675 1406.87,910.821L1406.87,882.884C1406.87,882.009 1406.73,881.394 1406.46,881.04C1406.19,880.686 1405.66,880.405 1404.87,880.196L1404.87,879.352L1432.78,879.352C1433.65,879.352 1434.27,879.217 1434.62,878.946C1434.97,878.675 1435.26,878.144 1435.46,877.352L1436.31,877.352L1436.31,884.759L1435.46,884.759C1435.26,883.959 1434.97,883.425 1434.62,883.159C1434.27,882.892 1433.65,882.759 1432.78,882.759L1411.34,882.759L1411.34,894.571L1425,894.571C1425.87,894.571 1426.48,894.436 1426.84,894.165C1427.19,893.894 1427.47,893.363 1427.68,892.571L1428.53,892.571L1428.53,899.977L1427.68,899.977C1427.47,899.177 1427.19,898.644 1426.82,898.377C1426.46,898.111 1425.85,897.977 1425,897.977L1411.34,897.977Z" style="fill:rgb(35,31,32);fill-rule:nonzero;"/>
            </g>
        </g>
    </g>
</svg>
